<?xml version="1.0" encoding="utf-8"?>
<!-- Generator: Adobe Illustrator 24.1.3, SVG Export Plug-In . SVG Version: 6.00 Build 0)  -->
<svg version="1.1" id="Layer_1" xmlns="http://www.w3.org/2000/svg" xmlns:xlink="http://www.w3.org/1999/xlink" x="0px" y="0px"
	 viewBox="0 0 16 16" style="enable-background:new 0 0 16 16;" xml:space="preserve">
<g>
	<path d="M15.2,2.4c0-0.5-0.3-0.9-0.7-1.2c-0.3-0.2-0.6-0.3-1-0.3H3.9C3.4,0.8,3,1,2.7,1.3c0,0-1.3,1.3-1.4,1.3C1,3,0.8,3.4,0.8,3.9
		v9.6c0,0.9,0.7,1.7,1.7,1.7h9.6c0.5,0,0.9-0.2,1.2-0.5c0,0,1.3-1.3,1.3-1.4c0.3-0.3,0.5-0.7,0.5-1.2V2.5
		C15.2,2.4,15.2,2.4,15.2,2.4z M14,12.1c0,0.3-0.2,0.5-0.5,0.5H12c-0.2,0-0.4-0.2-0.5-0.4l-0.5-4c0-0.2-0.2-0.4-0.5-0.4h0
		c-0.3,0-0.5,0.3-0.5,0.5l0.5,3.7c0,0.3-0.2,0.5-0.5,0.5H7.3c-0.3,0-0.5-0.3-0.5-0.5l0.5-3.7c0-0.3-0.2-0.5-0.5-0.5h0
		c-0.2,0-0.4,0.2-0.5,0.4l-0.5,4c0,0.2-0.2,0.4-0.5,0.4H3.9c-0.3,0-0.5-0.2-0.5-0.5V2.5C3.4,2.2,3.6,2,3.9,2h9.6
		C13.8,2,14,2.2,14,2.5V12.1z"/>
</g>
</svg>
