<?xml version="1.0" encoding="utf-8"?>
<!-- Generator: Adobe Illustrator 24.1.3, SVG Export Plug-In . SVG Version: 6.00 Build 0)  -->
<svg version="1.1" id="Layer_1" xmlns="http://www.w3.org/2000/svg" xmlns:xlink="http://www.w3.org/1999/xlink" x="0px" y="0px"
	 viewBox="0 0 120 120" style="enable-background:new 0 0 120 120;" xml:space="preserve">
<style type="text/css">
	.st0{fill:#212327;}
	.st1{fill:#FFD400;}
	.st2{fill:#EB3160;}
</style>
<g>
	<path class="st0" d="M120,87l0-63.4c0-0.2,0-0.4,0-0.7c-0.2-3.2-1.9-6.2-4.5-8.1c-1.9-1.4-4.2-2.1-6.5-2.1l-88.6,0
		c-3.1,0-6,1.3-8,3.4c-0.1,0.1-8.8,8.8-8.9,8.9C1.3,27,0,29.8,0,33v63.3c0,6.1,4.9,11,11,11h88.6c3.1,0,6-1.3,8-3.4
		c0.1-0.1,8.8-8.8,8.9-8.9C118.7,93,120,90.2,120,87z"/>
	<g>
		<path class="st1" d="M83.7,90.1h-9.9c-1.6,0-2.9-1.2-3.1-2.7l-3.3-26.2c-0.2-1.6-1.5-2.7-3.1-2.7h-0.1c-1.9,0-3.3,1.6-3.1,3.5
			l3.1,24.6c0.2,1.9-1.2,3.5-3.1,3.5H42.9c-1.9,0-3.3-1.6-3.1-3.5L42.9,62c0.2-1.9-1.2-3.5-3.1-3.5h-0.1c-1.6,0-2.9,1.2-3.1,2.7
			l-3.3,26.2c-0.2,1.6-1.5,2.7-3.1,2.7h-10c-1.7,0-3.1-1.4-3.1-3.1V23.6c0-1.7,1.4-3.1,3.1-3.1h63.3c1.7,0,3.1,1.4,3.1,3.1V87
			C86.8,88.7,85.4,90.1,83.7,90.1z"/>
		<g>
			<path class="st2" d="M96.2,20.6H109c1.7,0,3.1,1.4,3.1,3.1v38c0,1.7-1.4,3.1-3.1,3.1H96.2c-1.7,0-3.1-1.4-3.1-3.1v-38
				C93.1,22,94.5,20.6,96.2,20.6z"/>
			<path class="st2" d="M96.2,71.1h12.7c1.7,0,3.1,1.4,3.1,3.1V87c0,1.7-1.4,3.1-3.1,3.1H96.2c-1.7,0-3.1-1.4-3.1-3.1V74.2
				C93.1,72.5,94.5,71.1,96.2,71.1z"/>
		</g>
	</g>
</g>
</svg>
