<?xml version="1.0" encoding="utf-8"?>
<!-- Generator: Adobe Illustrator 24.1.3, SVG Export Plug-In . SVG Version: 6.00 Build 0)  -->
<svg version="1.1" id="Layer_1" xmlns="http://www.w3.org/2000/svg" xmlns:xlink="http://www.w3.org/1999/xlink" x="0px" y="0px"
	 viewBox="0 0 130 60" style="enable-background:new 0 0 130 60;" xml:space="preserve">
<style type="text/css">
	.st0{fill:#090516;}
	.st1{fill:#FFD402;}
	.st2{fill:#EE3A78;}
</style>
<g>
	<path class="st0" d="M83,14.6l0-12.4c0,0,0-0.1,0-0.1c0-0.6-0.4-1.2-0.9-1.6C81.7,0.1,81.3,0,80.8,0L4,0C3.4,0,2.8,0.3,2.4,0.7
		c0,0-1.7,1.7-1.7,1.7C0.3,2.8,0,3.4,0,4v12.4c0,1.2,1,2.2,2.2,2.2H79c0.6,0,1.2-0.3,1.6-0.7c0,0,1.7-1.7,1.7-1.7
		C82.7,15.7,83,15.2,83,14.6z"/>
	<g>
		<path class="st1" d="M16.4,15.2h-1.9c-0.3,0-0.6-0.2-0.6-0.5l-0.6-5.1c0-0.3-0.3-0.5-0.6-0.5h0c-0.4,0-0.6,0.3-0.6,0.7l0.6,4.8
			c0,0.4-0.2,0.7-0.6,0.7H8.4c-0.4,0-0.6-0.3-0.6-0.7l0.6-4.8C8.5,9.3,8.2,9,7.8,9h0C7.5,9,7.2,9.2,7.2,9.5l-0.6,5.1
			c0,0.3-0.3,0.5-0.6,0.5H4c-0.3,0-0.6-0.3-0.6-0.6V2.2c0-0.3,0.3-0.6,0.6-0.6h12.4c0.3,0,0.6,0.3,0.6,0.6v12.4
			C17,14.9,16.7,15.2,16.4,15.2z"/>
		<path class="st1" d="M31.3,1.5H18.9c-0.3,0-0.6,0.3-0.6,0.6v12.4c0,0.3,0.3,0.6,0.6,0.6h12.4c0.3,0,0.6-0.3,0.6-0.6V2.1
			C31.9,1.8,31.6,1.5,31.3,1.5z M25.5,11.4c-0.3,0-0.5-0.2-0.6-0.5L24,6c-0.1-0.4,0.2-0.7,0.6-0.7c0.1,0,0.3,0.1,0.4,0.1
			c0.1,0.1,0.2,0.2,0.2,0.4l0.9,5C26.2,11.1,25.9,11.4,25.5,11.4z"/>
		<path class="st1" d="M46.3,9.1l-5.2,1c-0.3,0.1-0.5,0.3-0.5,0.6v0c0,0.4,0.3,0.7,0.7,0.6l4.8-0.9c0.4-0.1,0.7,0.2,0.7,0.6v3.6
			c0,0.3-0.3,0.6-0.6,0.6H33.7c-0.3,0-0.6-0.3-0.6-0.6V8.3c0-0.3,0.2-0.5,0.5-0.6l5.2-1c0.3-0.1,0.5-0.3,0.5-0.6v0
			c0-0.4-0.3-0.7-0.7-0.6l-4.7,0.9c-0.4,0.1-0.7-0.2-0.7-0.6V2.1c0-0.3,0.3-0.6,0.6-0.6h12.4c0.3,0,0.6,0.3,0.6,0.6v6.3
			C46.8,8.8,46.5,9,46.3,9.1z"/>
		<path class="st2" d="M48.6,1.6h2.5c0.3,0,0.6,0.3,0.6,0.6v7.5c0,0.3-0.3,0.6-0.6,0.6h-2.5c-0.3,0-0.6-0.3-0.6-0.6V2.2
			C48,1.8,48.3,1.6,48.6,1.6z"/>
		<path class="st2" d="M48.6,11.5h2.5c0.3,0,0.6,0.3,0.6,0.6v2.5c0,0.3-0.3,0.6-0.6,0.6h-2.5c-0.3,0-0.6-0.3-0.6-0.6v-2.5
			C48,11.7,48.3,11.5,48.6,11.5z"/>
		<path class="st1" d="M66.6,2.2v12.4c0,0.3-0.3,0.6-0.6,0.6h-6.3c-0.3,0-0.5-0.2-0.6-0.5l-1-5.2C58,9.2,57.8,9,57.5,9h0
			c-0.4,0-0.7,0.3-0.6,0.7l0.9,4.7c0.1,0.4-0.2,0.7-0.6,0.7h-3.6c-0.3,0-0.6-0.3-0.6-0.6V2.2c0-0.3,0.3-0.6,0.6-0.6h6.3
			c0.3,0,0.5,0.2,0.6,0.5l1,5.2c0.1,0.3,0.3,0.5,0.6,0.5h0c0.4,0,0.7-0.3,0.6-0.7l-0.9-4.8c-0.1-0.4,0.2-0.7,0.6-0.7H66
			C66.3,1.6,66.6,1.8,66.6,2.2z"/>
		<path class="st1" d="M81.4,14.6c0,0.3-0.3,0.6-0.6,0.6l-12.4,0c-0.3,0-0.6-0.3-0.6-0.6V2.1c0,0,0,0,0,0c0-0.3,0.3-0.6,0.6-0.6
			h12.4c0.1,0,0.3,0,0.4,0.1c0.1,0.1,0.2,0.3,0.2,0.5c0,0,0,0,0,0v2c0,0.3-0.2,0.5-0.5,0.6l-8.7,1.1c-0.6,0.1-1.1,0.7-0.9,1.3l0.5,3
			c0.1,0.5,0.5,0.8,0.9,0.9l2.8,0.3l0.4,0c0,0,0.1,0,0.1,0c0.3,0,0.6-0.3,0.6-0.6c0-0.1-0.1-0.3-0.1-0.4c-0.1-0.1-0.2-0.2-0.4-0.2
			l-2.9-0.4c-0.2,0-0.3-0.2-0.3-0.3l-0.4-2.1c0-0.2,0.1-0.4,0.3-0.5l7.7-1l0.2,0c0.2,0,0.3,0,0.5,0.1c0.1,0.1,0.2,0.3,0.2,0.4
			L81.4,14.6z"/>
	</g>
</g>
</svg>
